<svg xmlns="http://www.w3.org/2000/svg" width="1200" height="675" viewBox="0 0 1200 675" role="img" aria-labelledby="title desc">
  <title id="title">How to Test a Converted Media File Before Replacing the Original</title>
  <desc id="desc">Keep the original, inspect the output, test destination playback, then record the result and retain a backup.</desc>
  <rect width="1200" height="675" fill="#fbf7ef"/>
  <rect x="54" y="48" width="1092" height="579" rx="28" fill="#f7f2e9" stroke="#ded7ca" stroke-width="1.8"/>
  <text fill="#30302c" font-family="Pretendard, SUIT, Noto Sans KR, Apple SD Gothic Neo, Inter, system-ui, sans-serif" font-size="38" font-weight="680"><tspan x="92" y="100">How to Test a Converted Media File</tspan><tspan x="92" y="145">Before Replacing the Original</tspan></text>
  <text fill="#69645c" font-family="Pretendard, SUIT, Noto Sans KR, Apple SD Gothic Neo, Inter, system-ui, sans-serif" font-size="19"><tspan x="92" y="179">After conversion · test a converted media file</tspan></text>
  <g transform="translate(72 207)"><rect width="190" height="150" rx="18" fill="#fffdf8" stroke="#d8d0c3" stroke-width="1.6"/><text x="24" y="48" fill="#30302c" font-family="Pretendard, SUIT, Noto Sans KR, Apple SD Gothic Neo, Inter, system-ui, sans-serif" font-size="20" font-weight="650"><tspan x="24" y="35">1.</tspan><tspan x="24" y="59">Preserve</tspan></text><text fill="#5f5b54" font-family="Pretendard, SUIT, Noto Sans KR, Apple SD Gothic Neo, Inter, system-ui, sans-serif" font-size="15"><tspan x="24" y="84">Keep the</tspan><tspan x="24" y="105">original</tspan></text></g><g transform="translate(346 207)"><rect width="190" height="150" rx="18" fill="#fffdf8" stroke="#d8d0c3" stroke-width="1.6"/><text x="24" y="48" fill="#30302c" font-family="Pretendard, SUIT, Noto Sans KR, Apple SD Gothic Neo, Inter, system-ui, sans-serif" font-size="20" font-weight="650"><tspan x="24" y="35">2.</tspan><tspan x="24" y="59">Inspect</tspan></text><text fill="#5f5b54" font-family="Pretendard, SUIT, Noto Sans KR, Apple SD Gothic Neo, Inter, system-ui, sans-serif" font-size="15"><tspan x="24" y="84">Check what</tspan><tspan x="24" y="105">changed</tspan></text></g><g transform="translate(620 207)"><rect width="190" height="150" rx="18" fill="#fffdf8" stroke="#d8d0c3" stroke-width="1.6"/><text x="24" y="48" fill="#30302c" font-family="Pretendard, SUIT, Noto Sans KR, Apple SD Gothic Neo, Inter, system-ui, sans-serif" font-size="20" font-weight="650"><tspan x="24" y="48">3. Play</tspan></text><text fill="#5f5b54" font-family="Pretendard, SUIT, Noto Sans KR, Apple SD Gothic Neo, Inter, system-ui, sans-serif" font-size="15"><tspan x="24" y="84">Test the</tspan><tspan x="24" y="105">destination</tspan></text></g><g transform="translate(894 207)"><rect width="190" height="150" rx="18" fill="#fffdf8" stroke="#d8d0c3" stroke-width="1.6"/><text x="24" y="48" fill="#30302c" font-family="Pretendard, SUIT, Noto Sans KR, Apple SD Gothic Neo, Inter, system-ui, sans-serif" font-size="20" font-weight="650"><tspan x="24" y="48">4. Retain</tspan></text><text fill="#5f5b54" font-family="Pretendard, SUIT, Noto Sans KR, Apple SD Gothic Neo, Inter, system-ui, sans-serif" font-size="15"><tspan x="24" y="84">Record and</tspan><tspan x="24" y="105">back up</tspan></text></g>
  <path d="M280 282H328m-10-11 12 11-12 11" fill="none" stroke="#8c867b" stroke-width="3" stroke-linecap="round" stroke-linejoin="round"/><path d="M554 282H602m-10-11 12 11-12 11" fill="none" stroke="#8c867b" stroke-width="3" stroke-linecap="round" stroke-linejoin="round"/><path d="M828 282H876m-10-11 12 11-12 11" fill="none" stroke="#8c867b" stroke-width="3" stroke-linecap="round" stroke-linejoin="round"/>
  <rect x="92" y="456" width="1016" height="82" rx="18" fill="#e7f2fb" stroke="#b9d7ea" stroke-width="1.6"/>
  <text x="124" y="506" fill="#30302c" font-family="Pretendard, SUIT, Noto Sans KR, Apple SD Gothic Neo, Inter, system-ui, sans-serif" font-size="20" font-weight="650">A playable copy is not a replacement for the only original.</text>
  <text x="92" y="588" fill="#817c73" font-family="Pretendard, SUIT, Noto Sans KR, Apple SD Gothic Neo, Inter, system-ui, sans-serif" font-size="14">ONNELLAB Blog · Generated workflow asset</text>
</svg>
